<svg width="16" height="17" viewBox="0 0 16 17" fill="none" xmlns="http://www.w3.org/2000/svg">
<path d="M8 16.8086C3.58125 16.8086 0 13.2273 0 8.80859C0 4.38984 3.58125 0.808594 8 0.808594C12.4187 0.808594 16 4.38984 16 8.80859C16 13.2273 12.4187 16.8086 8 16.8086ZM7.25 8.80859C7.25 9.05859 7.375 9.29297 7.58437 9.40547L10.5844 11.4055C10.9281 11.6617 11.3938 11.568 11.5969 11.2242C11.8531 10.8805 11.7594 10.4148 11.4156 10.1836L8.75 8.40859V4.55859C8.75 4.14297 8.41563 3.80859 7.97188 3.80859C7.58438 3.80859 7.22188 4.14297 7.22188 4.55859L7.25 8.80859Z" fill="#7D45D8"/>
</svg>
